<svg xmlns="http://www.w3.org/2000/svg" width="390" height="700" viewBox="0 0 390 700" role="img"><title>mia: scenes · phone · furniture</title><g id="furniture"><rect x="13.650000000000002" y="49.00000000000001" width="167.7" height="252.0" rx="18" fill="#D3DAC3"/><rect x="206.70000000000002" y="49.00000000000001" width="169.65" height="252.0" rx="18" fill="#F1D5B8"/><rect x="13.650000000000002" y="392.00000000000006" width="362.70000000000005" height="280.0" rx="18" fill="#DAC1D5"/><rect x="25.35" y="203.0" width="109.20000000000002" height="65" rx="8" fill="#A2B294"/><rect x="261.3" y="175.0" width="97.5" height="62" rx="10" fill="#CF9E77"/><rect x="39.0" y="489.99999999999994" width="113.1" height="100" rx="22" fill="#A8869F"/><path d="M37.05 268.0v20M124.8 268.0v20" fill="none" stroke="#758D6C" stroke-width="5" stroke-linecap="round" stroke-linejoin="round"/><rect x="42.9" y="126.0" width="70.2" height="73.5" rx="7" fill="#687C75"/><rect x="47.97" y="135.1" width="60.06" height="53.9" rx="3" fill="#DCE5D3"/><rect x="267.15000000000003" y="185.5" width="29.25" height="35" rx="8" fill="#FFF1D0"/><path d="M304.2 178.5v50" fill="none" stroke="#B2805E" stroke-width="3" stroke-linecap="round" stroke-linejoin="round"/><rect x="46.8" y="504.0" width="40.949999999999996" height="35" rx="8" fill="#D4B4C6"/><rect x="95.55" y="504.0" width="46.8" height="35" rx="8" fill="#E4CCA7"/><path d="M50.7 590.0v18M140.4 590.0v18" fill="none" stroke="#8B6D86" stroke-width="5" stroke-linecap="round" stroke-linejoin="round"/><rect x="241.8" y="70.0" width="85.8" height="70.0" rx="25" fill="#FAF3DA"/><path d="M284.7 70.0v70.0" fill="none" stroke="#D3B9CA" stroke-width="4" stroke-linecap="round" stroke-linejoin="round"/><path d="M195.0 0v315.0M0 343.0h390" fill="none" stroke="#887299" stroke-width="5" stroke-linecap="round" stroke-linejoin="round"/><rect x="292.5" y="420.0" width="58.5" height="217.0" rx="30" fill="#B78C73"/><circle cx="335.4" cy="546.0" r="6" fill="#FFF8E9"/></g></svg>