<svg xmlns="http://www.w3.org/2000/svg" viewBox="0 0 500 700" role="img" preserveAspectRatio="none"><title>library floor</title><rect width="500" height="700" rx="24" fill="#f4ede1"/><path d="M0 0V700" stroke="#d0c4a8" opacity=".35"/><path d="M100 0V700" stroke="#d0c4a8" opacity=".35"/><path d="M200 0V700" stroke="#d0c4a8" opacity=".35"/><path d="M300 0V700" stroke="#d0c4a8" opacity=".35"/><path d="M400 0V700" stroke="#d0c4a8" opacity=".35"/><path d="M500 0V700" stroke="#d0c4a8" opacity=".35"/><path d="M0 0H500" stroke="#d0c4a8" opacity=".35"/><path d="M0 100H500" stroke="#d0c4a8" opacity=".35"/><path d="M0 200H500" stroke="#d0c4a8" opacity=".35"/><path d="M0 300H500" stroke="#d0c4a8" opacity=".35"/><path d="M0 400H500" stroke="#d0c4a8" opacity=".35"/><path d="M0 500H500" stroke="#d0c4a8" opacity=".35"/><path d="M0 600H500" stroke="#d0c4a8" opacity=".35"/><path d="M0 700H500" stroke="#d0c4a8" opacity=".35"/><rect x="16" y="18" width="14" height="36" rx="3" fill="#d39d78"/><rect x="34" y="18" width="14" height="36" rx="3" fill="#d39d78"/><rect x="52" y="18" width="14" height="36" rx="3" fill="#d39d78"/><rect x="70" y="18" width="14" height="36" rx="3" fill="#d39d78"/><rect x="88" y="18" width="14" height="36" rx="3" fill="#d39d78"/><rect x="106" y="18" width="14" height="36" rx="3" fill="#d39d78"/><rect x="124" y="18" width="14" height="36" rx="3" fill="#d39d78"/></svg>